<svg width="213" height="213" viewBox="0 0 213 213" fill="none" xmlns="http://www.w3.org/2000/svg">
<g id="Group 16" filter="url(#filter0_d_54_34)">
<circle id="Ellipse 14" cx="106.207" cy="103.207" r="96.5154" fill="white" stroke="#00AFC4" stroke-width="12.5549"/>
<g id="Ellipse 16" filter="url(#filter1_d_54_34)">
<circle cx="45.9038" cy="45.9038" r="45.9038" transform="matrix(-1 0 0 1 151.719 56.9126)" fill="white"/>
</g>
<circle id="Ellipse 15" cx="106.208" cy="103.208" r="77.6831" stroke="#5FC0D4" stroke-width="6.27745"/>
<path id="icon" d="M105.814 148.72C99.5409 148.72 93.6117 147.515 88.0267 145.105C82.4418 142.695 77.5645 139.406 73.3949 135.236C69.2253 131.066 65.9355 126.189 63.5256 120.604C61.1156 115.019 59.9106 109.09 59.9106 102.816C59.9106 96.4665 61.1156 90.5181 63.5256 84.9714C65.9355 79.4247 69.2253 74.5665 73.3949 70.3969C77.5645 66.2273 82.4418 62.9375 88.0267 60.5276C93.6117 58.1176 99.5409 56.9127 105.814 56.9127C112.165 56.9127 118.113 58.1176 123.66 60.5276C129.206 62.9375 134.064 66.2273 138.234 70.3969C142.404 74.5665 145.693 79.4247 148.103 84.9714C150.513 90.5181 151.718 96.4665 151.718 102.816C151.718 109.09 150.513 115.019 148.103 120.604C145.693 126.189 142.404 131.066 138.234 135.236C134.064 139.406 129.206 142.695 123.66 145.105C118.113 147.515 112.165 148.72 105.814 148.72ZM105.814 139.31C107.804 136.556 109.525 133.687 110.979 130.703C112.432 127.719 113.618 124.544 114.536 121.178H97.0927C98.0108 124.544 99.1967 127.719 100.65 130.703C102.104 133.687 103.825 136.556 105.814 139.31ZM93.8795 137.474C92.5024 134.949 91.2974 132.329 90.2646 129.613C89.2317 126.897 88.371 124.085 87.6825 121.178H74.1408C76.3595 125.003 79.1329 128.331 82.4609 131.162C85.7889 133.993 89.5951 136.097 93.8795 137.474ZM117.749 137.474C122.034 136.097 125.84 133.993 129.168 131.162C132.496 128.331 135.269 125.003 137.488 121.178H123.946C123.258 124.085 122.397 126.897 121.364 129.613C120.332 132.329 119.127 134.949 117.749 137.474ZM70.239 111.997H85.8463C85.6168 110.467 85.4446 108.956 85.3299 107.464C85.2151 105.972 85.1577 104.423 85.1577 102.816C85.1577 101.21 85.2151 99.6606 85.3299 98.1687C85.4446 96.6768 85.6168 95.1658 85.8463 93.6357H70.239C69.8565 95.1658 69.5696 96.6768 69.3783 98.1687C69.187 99.6606 69.0914 101.21 69.0914 102.816C69.0914 104.423 69.187 105.972 69.3783 107.464C69.5696 108.956 69.8565 110.467 70.239 111.997ZM95.0271 111.997H116.602C116.831 110.467 117.004 108.956 117.118 107.464C117.233 105.972 117.29 104.423 117.29 102.816C117.29 101.21 117.233 99.6606 117.118 98.1687C117.004 96.6768 116.831 95.1658 116.602 93.6357H95.0271C94.7976 95.1658 94.6254 96.6768 94.5107 98.1687C94.3959 99.6606 94.3385 101.21 94.3385 102.816C94.3385 104.423 94.3959 105.972 94.5107 107.464C94.6254 108.956 94.7976 110.467 95.0271 111.997ZM125.783 111.997H141.39C141.772 110.467 142.059 108.956 142.251 107.464C142.442 105.972 142.538 104.423 142.538 102.816C142.538 101.21 142.442 99.6606 142.251 98.1687C142.059 96.6768 141.772 95.1658 141.39 93.6357H125.783C126.012 95.1658 126.184 96.6768 126.299 98.1687C126.414 99.6606 126.471 101.21 126.471 102.816C126.471 104.423 126.414 105.972 126.299 107.464C126.184 108.956 126.012 110.467 125.783 111.997ZM123.946 84.455H137.488C135.269 80.6296 132.496 77.3016 129.168 74.4709C125.84 71.6401 122.034 69.5362 117.749 68.1591C119.127 70.6838 120.332 73.3041 121.364 76.0201C122.397 78.7361 123.258 81.5477 123.946 84.455ZM97.0927 84.455H114.536C113.618 81.0887 112.432 77.9137 110.979 74.9299C109.525 71.9462 107.804 69.0772 105.814 66.3229C103.825 69.0772 102.104 71.9462 100.65 74.9299C99.1967 77.9137 98.0108 81.0887 97.0927 84.455ZM74.1408 84.455H87.6825C88.371 81.5477 89.2317 78.7361 90.2646 76.0201C91.2974 73.3041 92.5024 70.6838 93.8795 68.1591C89.5951 69.5362 85.7889 71.6401 82.4609 74.4709C79.1329 77.3016 76.3595 80.6296 74.1408 84.455Z" fill="#00AFC4"/>
</g>
<defs>
<filter id="filter0_d_54_34" x="0.275828" y="0.414612" width="211.863" height="211.863" filterUnits="userSpaceOnUse" color-interpolation-filters="sRGB">
<feFlood flood-opacity="0" result="BackgroundImageFix"/>
<feColorMatrix in="SourceAlpha" type="matrix" values="0 0 0 0 0 0 0 0 0 0 0 0 0 0 0 0 0 0 127 0" result="hardAlpha"/>
<feOffset dy="3.13872"/>
<feGaussianBlur stdDeviation="1.56936"/>
<feComposite in2="hardAlpha" operator="out"/>
<feColorMatrix type="matrix" values="0 0 0 0 0 0 0 0 0 0 0 0 0 0 0 0 0 0 0.25 0"/>
<feBlend mode="normal" in2="BackgroundImageFix" result="effect1_dropShadow_54_34"/>
<feBlend mode="normal" in="SourceGraphic" in2="effect1_dropShadow_54_34" result="shape"/>
</filter>
<filter id="filter1_d_54_34" x="56.7729" y="56.9126" width="98.0851" height="98.0851" filterUnits="userSpaceOnUse" color-interpolation-filters="sRGB">
<feFlood flood-opacity="0" result="BackgroundImageFix"/>
<feColorMatrix in="SourceAlpha" type="matrix" values="0 0 0 0 0 0 0 0 0 0 0 0 0 0 0 0 0 0 127 0" result="hardAlpha"/>
<feOffset dy="3.13872"/>
<feGaussianBlur stdDeviation="1.56936"/>
<feComposite in2="hardAlpha" operator="out"/>
<feColorMatrix type="matrix" values="0 0 0 0 0 0 0 0 0 0 0 0 0 0 0 0 0 0 0.25 0"/>
<feBlend mode="normal" in2="BackgroundImageFix" result="effect1_dropShadow_54_34"/>
<feBlend mode="normal" in="SourceGraphic" in2="effect1_dropShadow_54_34" result="shape"/>
</filter>
</defs>
</svg>
